#!OML:ASF X:\für Bonn\!DataBase\2005_08_11_Bastian_Final\c3d\Bastian.ASF
:FULLY-SPECIFIED
:DEGREES
181
root 1.22622 15.016 24.3077 -915.278 -36.7253 -895.844
lowerback 66.1512 5.77991 -2.90105
upperback 17.0987 -5.17084 -2.85007
thorax -2.13761 -5.84877 0.210088
lowerneck -23.71 -12.5157 -8.82228
upperneck -9.06468 -16.5719 17.5584
head 3.15439 -8.56103 5.02441
rclavicle 1.90833e-014 5.56597e-015
rhumerus -2.73423 24.5167 -73.9327
rradius 52.7186
rwrist -4.46696
rhand -12.8217 6.74688
rfingers 7.12502
rthumb 13.2651 -22.811
lclavicle 1.90833e-014 5.56597e-015
lhumerus -175.177 -164.33 238.191
lradius 23.1196
lwrist 25.16
lhand -19.0405 -7.02871
lfingers 7.12502
lthumb 7.26608 22.8265
rfemur -35.8659 -14.4392 23.3413
rtibia 68.8574
rfoot -17.4374 -10.5989
rtoes -19.8188
lfemur -31.0223 -5.64837 -16.8155
ltibia 69.5808
lfoot -17.0358 -13.1237
ltoes -13.6676
182
root 1.25302 14.9133 24.3234 -915.267 -36.7342 -895.703
lowerback 66.878 5.92652 -2.91337
upperback 17.0285 -5.17715 -2.85804
thorax -2.1854 -5.8745 0.201398
lowerneck -23.7009 -12.5202 -8.81276
upperneck -9.3768 -16.5959 17.7967
head 3.08796 -8.60583 5.10024
rclavicle 2.22639e-014 5.1684e-014
rhumerus -2.17767 24.4562 -73.4001
rradius 53.1436
rwrist -4.92711
rhand -12.9368 6.66061
rfingers 7.12502
rthumb 13.1541 -22.9045
lclavicle 2.22639e-014 5.1684e-014
lhumerus -174.855 -164.833 237.744
lradius 22.9014
lwrist 25.0664
lhand -19.1371 -6.68618
lfingers 7.12502
lthumb 7.17285 23.1723
rfemur -36.8892 -14.667 23.5934
rtibia 70.0926
rfoot -17.6175 -10.4748
rtoes -19.7248
lfemur -32.0581 -5.55704 -16.6108
ltibia 70.9562
lfoot -17.4393 -13.2673
ltoes -13.6205
183
root 1.27828 14.807 24.3394 -915.227 -36.7964 -895.581
lowerback 67.5839 6.05028 -2.94466
upperback 16.9582 -5.21074 -2.84218
thorax -2.2262 -5.91425 0.236942
lowerneck -23.7159 -12.5225 -8.83806
upperneck -9.69988 -16.6086 18.0174
head 3.02043 -8.64651 5.17733
rclavicle 5.08889e-014 3.57812e-014
rhumerus -1.60899 24.4131 -72.8575
rradius 53.5587
rwrist -5.33966
rhand -13.0934 6.60944
rfingers 7.12502
rthumb 13.0032 -22.9653
lclavicle 5.08889e-014 3.57812e-014
lhumerus -174.552 -165.416 237.344
lradius 22.6656
lwrist 24.9086
lhand -19.2606 -6.35006
lfingers 7.12502
lthumb 7.05358 23.5124
rfemur -37.9385 -14.9299 23.8087
rtibia 71.3378
rfoot -17.8012 -10.3051
rtoes -19.4268
lfemur -33.1296 -5.50552 -16.4397
ltibia 72.3384
lfoot -17.8542 -13.4415
ltoes -13.5359
184
root 1.30189 14.6995 24.3546 -915.177 -36.8192 -895.492
lowerback 68.2488 6.20231 -2.98259
upperback 16.9064 -5.22268 -2.84294
thorax -2.24524 -5.94483 0.246054
lowerneck -23.7446 -12.5373 -8.85741
upperneck -9.97518 -16.6374 18.253
head 2.97313 -8.68983 5.25302
rclavicle -3.81667e-014 2.78299e-014
rhumerus -1.10352 24.2612 -72.3835
rradius 53.9849
rwrist -5.67247
rhand -13.1658 6.52395
rfingers 7.12502
rthumb 12.9334 -23.0552
lclavicle -3.81667e-014 2.78299e-014
lhumerus -174.223 -165.956 236.937
lradius 22.4012
lwrist 24.7627
lhand -19.3798 -5.98713
lfingers 7.12502
lthumb 6.93851 23.8792
rfemur -38.9834 -15.1384 24.0056
rtibia 72.5964
rfoot -18.0051 -10.1528
rtoes -18.8582
lfemur -34.1789 -5.40554 -16.2875
ltibia 73.7137
lfoot -18.2427 -13.6215
ltoes -13.3459
185
root 1.32461 14.5894 24.3703 -915.147 -36.8661 -895.375
lowerback 68.9149 6.29965 -2.97486
upperback 16.8483 -5.26116 -2.85756
thorax -2.27274 -5.98049 0.232373
lowerneck -23.7672 -12.5595 -8.88284
upperneck -10.2341 -16.6736 18.473
head 2.92965 -8.73595 5.32358
rclavicle -4.45278e-014 -4.85035e-014
rhumerus -0.646647 24.1073 -71.9362
rradius 54.4359
rwrist -6.05443
rhand -13.2325 6.50262
rfingers 7.12502
rthumb 12.8691 -23.0806
lclavicle -4.45278e-014 -4.85035e-014
lhumerus -173.909 -166.51 236.528
lradius 22.1327
lwrist 24.6477
lhand -19.4839 -5.64576
lfingers 7.12502
lthumb 6.83804 24.2238
rfemur -40.0269 -15.3839 24.2196
rtibia 73.8551
rfoot -18.2291 -9.99913
rtoes -18.3122
lfemur -35.2377 -5.31409 -16.1179
ltibia 75.0963
lfoot -18.6453 -13.846
ltoes -13.0146
186
root 1.346 14.4776 24.386 -915.09 -36.919 -895.285
lowerback 69.5352 6.37628 -2.94905
upperback 16.8114 -5.30935 -2.89979
thorax -2.27975 -6.01599 0.182911
lowerneck -23.8055 -12.5986 -8.91061
upperneck -10.4857 -16.7316 18.7188
head 2.89675 -8.79185 5.39761
rclavicle -8.26944e-014 -1.72545e-013
rhumerus -0.180004 23.8857 -71.5598
rradius 54.8236
rwrist -6.36004
rhand -13.3281 6.47856
rfingers 7.12502
rthumb 12.7769 -23.1105
lclavicle -8.26944e-014 -1.72545e-013
lhumerus -173.611 -167.179 236.155
lradius 21.865
lwrist 24.3245
lhand -19.5449 -5.30791
lfingers 7.12502
lthumb 6.77916 24.5636
rfemur -41.0982 -15.6077 24.4083
rtibia 75.1264
rfoot -18.4482 -9.82997
rtoes -17.6614
lfemur -36.3031 -5.21367 -15.9803
ltibia 76.4703
lfoot -19.0238 -14.0805
ltoes -12.6399
187
root 1.36609 14.3639 24.4022 -915.067 -36.9678 -895.169
lowerback 70.1327 6.43846 -2.91537
upperback 16.7691 -5.35949 -2.93064
thorax -2.29124 -6.05176 0.144391
lowerneck -23.7442 -12.6551 -9.06641
upperneck -10.7442 -16.7778 19.0389
head 2.8672 -8.83764 5.51809
rclavicle 4.77083e-014 8.74653e-015
rhumerus 0.276838 23.7125 -71.157
rradius 55.1609
rwrist -6.61523
rhand -13.4281 6.53431
rfingers 7.12502
rthumb 12.6805 -23.0607
lclavicle 4.77083e-014 8.74653e-015
lhumerus -173.379 -167.93 235.851
lradius 21.5495
lwrist 23.9894
lhand -19.6497 -5.13887
lfingers 7.12502
lthumb 6.67802 24.7358
rfemur -42.1443 -15.8566 24.614
rtibia 76.3921
rfoot -18.6966 -9.67699
rtoes -17.0698
lfemur -37.3624 -5.11389 -15.8221
ltibia 77.8514
lfoot -19.4149 -14.3079
ltoes -12.4183
188
root 1.38511 14.2482 24.418 -915.052 -37.0532 -895.067
lowerback 70.755 6.46878 -2.87316
upperback 16.7258 -5.44458 -2.98184
thorax -2.30234 -6.10013 0.0927348
lowerneck -23.7541 -12.6898 -9.11321
upperneck -10.9628 -16.8232 19.305
head 2.84435 -8.88362 5.60265
rclavicle -9.85972e-014 -8.18993e-014
rhumerus 0.698158 23.5443 -70.8267
rradius 55.5088
rwrist -6.76789
rhand -13.6087 6.60482
rfingers 7.12502
rthumb 12.5064 -23.0009
lclavicle -9.85972e-014 -8.18993e-014
lhumerus -173.16 -168.627 235.476
lradius 21.2671
lwrist 23.7005
lhand -19.721 -4.93377
lfingers 7.12502
lthumb 6.60912 24.9431
rfemur -43.1806 -16.1286 24.7993
rtibia 77.6678
rfoot -18.923 -9.5627
rtoes -16.5358
lfemur -38.4137 -5.04426 -15.6938
ltibia 79.2318
lfoot -19.7856 -14.5589
ltoes -11.9609
189
root 1.40258 14.1291 24.4344 -915.029 -37.1102 -894.977
lowerback 71.3239 6.51086 -2.82737
upperback 16.7056 -5.51216 -3.02778
thorax -2.28783 -6.14288 0.0367851
lowerneck -23.7863 -12.7461 -9.2152
upperneck -11.1611 -16.8825 19.5819
head 2.83831 -8.93193 5.69444
rclavicle -1.01778e-013 8.74653e-015
rhumerus 1.08545 23.4161 -70.4168
rradius 55.8937
rwrist -6.98791
rhand -13.778 6.67557
rfingers 7.12502
rthumb 12.3432 -22.9401
lclavicle -1.01778e-013 8.74653e-015
lhumerus -172.944 -169.192 235.089
lradius 21.0245
lwrist 23.5461
lhand -19.8165 -4.75098
lfingers 7.12502
lthumb 6.51693 25.1288
rfemur -44.229 -16.3489 24.9722
rtibia 78.9555
rfoot -19.199 -9.40806
rtoes -15.8864
lfemur -39.4663 -4.95062 -15.5604
ltibia 80.6168
lfoot -20.1114 -14.8813
ltoes -11.2277
190
root 1.41903 14.0077 24.4508 -915.007 -37.1836 -894.888
lowerback 71.8691 6.52896 -2.78198
upperback 16.6929 -5.6037 -3.08961
thorax -2.26646 -6.19364 -0.0279254
lowerneck -23.9059 -12.7974 -9.26582
upperneck -11.2483 -16.9484 19.8351
head 2.87223 -8.97211 5.7626
rclavicle 6.36111e-014 3.18055e-015
rhumerus 1.50834 23.3343 -70.0342
rradius 56.2396
rwrist -7.1848
rhand -13.961 6.75586
rfingers 7.12502
rthumb 12.1667 -22.8703
lclavicle 6.36111e-014 3.18055e-015
lhumerus -172.748 -169.818 234.698
lradius 20.7536
lwrist 23.3803
lhand -19.9514 -4.59204
lfingers 7.12502
lthumb 6.38669 25.2917
rfemur -45.2942 -16.6158 25.1472
rtibia 80.2535
rfoot -19.4486 -9.26835
rtoes -15.4099
lfemur -40.5369 -4.86982 -15.4393
ltibia 82.0141
lfoot -20.4525 -15.1787
ltoes -10.5052
191
root 1.43409 13.8831 24.4671 -914.997 -37.2479 -894.795
lowerback 72.3941 6.54632 -2.73213
upperback 16.6865 -5.69083 -3.14817
thorax -2.23762 -6.24278 -0.0931381
lowerneck -24.091 -12.8483 -9.30651
upperneck -11.2843 -17.0162 20.0396
head 2.92364 -9.00738 5.8101
rclavicle 9.54166e-014 3.4191e-014
rhumerus 1.88172 23.2957 -69.6285
rradius 56.6026
rwrist -7.28104
rhand -14.2398 6.85148
rfingers 7.12502
rthumb 11.8979 -22.7905
lclavicle 9.54166e-014 3.4191e-014
lhumerus -172.523 -170.78 234.427
lradius 20.3665
lwrist 22.8697
lhand -19.9877 -4.54577
lfingers 7.12502
lthumb 6.35172 25.339
rfemur -46.3576 -16.8442 25.3217
rtibia 81.5655
rfoot -19.7068 -9.16198
rtoes -14.8218
lfemur -41.5949 -4.7754 -15.3239
ltibia 83.4221
lfoot -20.8066 -15.4674
ltoes -9.88446
